<svg width="289" height="41" viewBox="0 0 289 41" fill="none" xmlns="http://www.w3.org/2000/svg">
<g id="gp-logo-color-digital">
<g id="global-logo">
<g id=".global-logo">
<g id="word">
<path id="s" d="M263.94 23.5476C264.047 25.6822 265.932 27.2476 268.957 27.2476C271.518 27.2476 273.333 26.1449 273.333 24.4726C273.333 22.1957 271.34 22.0176 268.637 21.6976C264.581 21.1995 261.343 20.3811 261.343 16.6099C261.343 13.3011 264.367 11.131 268.458 11.1664C272.586 11.2019 275.574 13.123 275.859 16.8945H272.87C272.657 15.0445 270.949 13.6568 268.458 13.6568C265.968 13.6568 264.225 14.7242 264.225 16.3964C264.225 18.3888 266.146 18.638 268.779 18.958C272.906 19.4561 276.214 20.2388 276.214 24.2592C276.214 27.6391 272.977 29.738 268.957 29.738C264.26 29.738 261.023 27.5322 260.951 23.5476H263.94Z" fill="#262AFF"/>
<path id="t" d="M251.652 14.0786H248.379V11.4101H251.652V6.32275H254.57V11.4104H258.038L259.047 14.0789H254.57V24.732C254.57 26.262 255.104 26.8309 256.669 26.8309H258.037L259.048 29.4994H256.384C252.898 29.4994 251.652 27.9694 251.652 24.7674V14.0786Z" fill="#262AFF"/>
<path id="n" d="M246.962 19.3974V29.5013H244.044V19.5752C244.044 15.804 242.301 13.8117 239.135 13.8117C235.719 13.8117 233.656 16.3378 233.656 20.429V29.5013H230.738V11.357H233.264L233.656 13.812C234.723 12.4247 236.573 11.1436 239.633 11.1436C243.724 11.1436 246.962 13.3851 246.962 19.3974Z" fill="#262AFF"/>
<path id="e" d="M210.882 20.4606C210.882 14.946 214.368 11.1748 219.491 11.1748C224.615 11.1748 227.959 14.4125 228.101 19.7845C228.101 20.176 228.066 20.6029 228.03 21.0298H213.941V21.2787C214.048 24.7299 216.218 27.1491 219.669 27.1491C222.231 27.1491 224.223 25.7972 224.828 23.4491H227.782C227.07 27.0779 224.081 29.7464 219.883 29.7464C214.44 29.7464 210.882 26.0106 210.882 20.4606H210.882ZM224.97 18.6106C224.686 15.4798 222.551 13.7364 219.527 13.7364C216.858 13.7364 214.404 15.6575 214.119 18.6106H224.97Z" fill="#262AFF"/>
<path id="m" d="M208.131 19.1032V29.5629H205.213V19.2809C205.213 15.7232 203.648 13.8732 200.908 13.8732C197.884 13.8732 196.034 16.1501 196.034 19.8502V29.5629H193.117V19.2809C193.117 15.7232 191.515 13.8732 188.74 13.8732C185.752 13.8732 183.937 16.3636 183.937 19.9925V29.5629H181.02V11.4185H183.546L183.937 13.9089C184.898 12.5927 186.428 11.2051 189.238 11.2051C191.765 11.2051 193.935 12.3435 194.967 14.6562C196.069 12.6996 198.026 11.2051 201.264 11.2051C205.035 11.2051 208.131 13.3754 208.131 19.1032Z" fill="#262AFF"/>
<path id="y" d="M161.701 11.4066H164.796L170.382 25.8866L175.79 11.4066H178.885L169.913 34.1612C168.774 37.0785 168.098 38.217 165.537 38.217H162.901V35.5485H164.647C166.32 35.5485 166.604 35.1216 167.28 33.4139L168.781 29.6575L161.701 11.4062L161.701 11.4066Z" fill="#262AFF"/>
<path id="a" d="M162.901 26.8404V29.5088H161.437C159.017 29.5088 158.199 28.4773 158.163 26.6981C157.025 28.3346 155.21 29.7223 152.079 29.7223C148.095 29.7223 145.391 27.73 145.391 24.4211C145.391 20.7923 147.917 18.7642 152.684 18.7642H158.021V17.5189C158.021 15.1708 156.349 13.7477 153.503 13.7477C150.941 13.7477 149.233 14.9573 148.877 16.8073H145.96C146.387 13.2496 149.269 11.1504 153.645 11.1504C158.27 11.1504 160.939 13.4631 160.939 17.6966V25.6304C160.939 26.5909 161.294 26.8401 162.112 26.8401H162.901V26.8404ZM158.021 21.2192H152.4C149.803 21.2192 148.344 22.1796 148.344 24.2434C148.344 26.0223 149.874 27.2319 152.293 27.2319C155.922 27.2319 158.021 25.1327 158.021 22.1088V21.2195L158.021 21.2192Z" fill="#262AFF"/>
<path id="p" d="M143.473 20.4899C143.473 26.0399 139.773 29.7757 134.756 29.7757C131.697 29.7757 129.633 28.5307 128.53 26.7872V38.2512H125.613V11.4176H128.139L128.531 14.3349C129.74 12.6626 131.697 11.2041 134.757 11.2041C139.773 11.2041 143.474 14.5841 143.474 20.4899H143.473ZM140.484 20.4899C140.484 16.5407 138.065 13.8014 134.472 13.8014C130.878 13.8014 128.494 16.541 128.494 20.4187C128.494 24.2965 130.914 27.1784 134.472 27.1784C138.029 27.1784 140.484 24.4388 140.484 20.4899Z" fill="#262AFF"/>
<path id="l" d="M120.271 4.69629H115.248V29.6344H120.271V4.69629Z" fill="#262AFF"/>
<path id="a_2" d="M112.487 25.3947V29.6364H109.922C107.321 29.6364 106.502 28.3897 106.539 26.6443C105.256 28.675 103.404 29.8508 100.553 29.8508C96.5995 29.8508 93.749 27.9621 93.749 24.4716C93.749 20.588 96.671 18.3792 102.157 18.3792H105.791V17.4864C105.791 15.8482 104.615 14.7792 102.516 14.7792C100.556 14.7792 99.2382 15.6698 99.026 17.0234H94.1809C94.5373 13.4611 97.8147 11.1094 102.66 11.1094C107.789 11.1094 110.747 13.3896 110.747 17.7713V24.2552C110.747 25.2169 111.139 25.395 111.923 25.395H112.488L112.487 25.3947ZM105.79 21.7258H102.12C100.018 21.7258 98.807 22.5806 98.807 24.1129C98.807 25.395 99.8399 26.2144 101.514 26.2144C104.15 26.2144 105.756 24.5762 105.789 22.0802L105.79 21.7258Z" fill="#262AFF"/>
<path id="b" d="M91.8109 20.443C91.8109 26.1075 88.2478 29.8475 83.2965 29.8475C81.089 29.9272 78.9838 28.9156 77.667 27.1427L77.1686 29.6367H72.7867V4.69629H77.8096V13.6381C79.1576 11.9832 81.1982 11.0487 83.3319 11.1087C88.2475 11.1087 91.8105 14.6356 91.8105 20.443M86.7162 20.4784C86.7162 17.3434 84.9353 15.2058 82.1914 15.2058C79.4475 15.2058 77.7381 17.3434 77.7381 20.4427C77.7381 23.542 79.4478 25.7507 82.1914 25.7507C84.935 25.7507 86.7162 23.6132 86.7162 20.4781" fill="#262AFF"/>
<path id="o" d="M50.8289 20.4781C50.8289 14.8491 54.6411 11.1084 60.4834 11.1084C66.3257 11.1084 70.1383 14.8491 70.1383 20.4781C70.1383 26.1072 66.326 29.8479 60.4837 29.8479C54.6414 29.8479 50.8289 26.1072 50.8289 20.4781ZM65.0433 20.4781C65.0433 17.3792 63.2978 15.2055 60.4831 15.2055C57.6683 15.2055 55.9583 17.3788 55.9583 20.4781C55.9583 23.5774 57.669 25.7508 60.4831 25.7508C63.2972 25.7508 65.0433 23.5774 65.0433 20.4781Z" fill="#262AFF"/>
<path id="l_2" d="M48.179 4.69629H43.1561V29.6344H48.179V4.69629Z" fill="#262AFF"/>
<path id="g" d="M31.0445 29.7003C29.4866 29.858 28.016 29.4901 27.4317 29.0046C27.2526 28.8398 27.1318 28.6211 27.0878 28.382C27.016 28.0462 27.1318 27.6979 27.3908 27.4723C27.9313 27.1184 28.5924 26.9994 29.2223 27.1432C29.7613 27.2131 30.3041 27.2477 30.8478 27.2474C36.3488 27.2474 39.9018 23.915 39.9018 18.7564C39.9018 13.5978 36.3457 10.2632 30.8475 10.2632C25.3493 10.2632 21.7931 13.5968 21.7931 18.7557C21.7931 21.6294 22.896 23.9357 24.8245 25.4158C23.8953 25.9749 23.1811 26.8308 22.7975 27.8452C22.4759 29.0006 22.8456 30.238 23.7484 31.0278L23.9746 31.2474L23.6914 31.39C21.5864 32.4481 20.5707 33.9266 20.8297 35.5552C20.8564 35.7173 20.8955 35.8768 20.9471 36.0325C21.8875 39.28 26.6067 40.6351 31.2613 40.4898C33.9248 40.4064 41.2998 39.2586 41.3766 34.6682C41.4808 28.3788 34.2979 29.38 31.4758 29.6607L31.0445 29.7003ZM30.8475 14.3576C33.1325 14.3576 34.5515 16.0438 34.5515 18.7573C34.5515 21.4708 33.1325 23.157 30.8475 23.157C28.5625 23.157 27.1419 21.4708 27.1419 18.7573C27.1419 16.0438 28.5609 14.3576 30.8475 14.3576ZM27.4128 33.0654C27.5226 33.0507 27.6695 33.0286 27.8451 33.0019C30.9302 32.546 35.1686 32.0894 36.3561 33.4304C36.6776 33.8023 36.7758 34.318 36.6128 34.7818C36.2689 36.0357 33.5635 36.5882 31.0243 36.5882C30.3538 36.5895 29.6836 36.5485 29.0181 36.4652C26.9789 36.1996 25.8509 35.5713 25.843 34.6956C25.8216 33.8178 26.9244 33.1299 27.415 33.0636" fill="#262AFF"/>
</g>
<g id="arc">
<path d="M35.976 6.61524C28.5249 3.89451 20.2949 7.73288 17.5741 15.1838C17.0774 16.5273 16.7951 17.9497 16.7274 19.3835C16.5693 22.4316 17.3709 25.4572 19.0304 28.0311C19.7191 29.0697 19.4368 30.4696 18.3982 31.1696C17.3596 31.8582 15.9597 31.576 15.2597 30.5374C9.33272 21.6752 11.7148 9.69724 20.5658 3.77034C22.1802 2.68656 23.9527 1.86241 25.8154 1.30924C29.7442 0.146435 33.9326 0.236773 37.7936 1.5802C39.1935 2.06565 39.9386 3.60099 39.4419 5.00087C38.9565 6.40075 37.4211 7.14584 36.0212 6.64911L35.9647 6.62654" fill="url(#paint0_linear_3407_5173)"/>
<path d="M35.976 6.61524C28.5249 3.89451 20.2949 7.73288 17.5741 15.1838C17.0774 16.5273 16.7951 17.9497 16.7274 19.3835C16.5693 22.4316 17.3709 25.4572 19.0304 28.0311C19.7191 29.0697 19.4368 30.4696 18.3982 31.1696C17.3596 31.8582 15.9597 31.576 15.2597 30.5374C9.33272 21.6752 11.7148 9.69724 20.5658 3.77034C22.1802 2.68656 23.9527 1.86241 25.8154 1.30924C29.7442 0.146435 33.9326 0.236773 37.7936 1.5802C39.1935 2.06565 39.9386 3.60099 39.4419 5.00087C38.9565 6.40075 37.4211 7.14584 36.0212 6.64911L35.9647 6.62654" fill="url(#paint1_linear_3407_5173)"/>
<path d="M35.976 6.61524C28.5249 3.89451 20.2949 7.73288 17.5741 15.1838C17.0774 16.5273 16.7951 17.9497 16.7274 19.3835C16.5693 22.4316 17.3709 25.4572 19.0304 28.0311C19.7191 29.0697 19.4368 30.4696 18.3982 31.1696C17.3596 31.8582 15.9597 31.576 15.2597 30.5374C9.33272 21.6752 11.7148 9.69724 20.5658 3.77034C22.1802 2.68656 23.9527 1.86241 25.8154 1.30924C29.7442 0.146435 33.9326 0.236773 37.7936 1.5802C39.1935 2.06565 39.9386 3.60099 39.4419 5.00087C38.9565 6.40075 37.4211 7.14584 36.0212 6.64911L35.9647 6.62654" fill="url(#paint2_linear_3407_5173)"/>
</g>
<path id="ping" d="M40.8193 4.59459C40.8193 6.23155 39.4871 7.56369 37.8501 7.56369C36.2132 7.56369 34.881 6.23155 34.881 4.59459C34.881 2.95764 36.2132 1.62549 37.8501 1.62549C39.4871 1.62549 40.8193 2.95764 40.8193 4.59459Z" fill="#262AFF"/>
</g>
</g>
</g>
<defs>
<linearGradient id="paint0_linear_3407_5173" x1="21.8985" y1="0.770384" x2="36.0953" y2="4.2038" gradientUnits="userSpaceOnUse">
<stop stop-color="#3FA3DE"/>
<stop offset="1" stop-color="#3FA3DE" stop-opacity="0"/>
</linearGradient>
<linearGradient id="paint1_linear_3407_5173" x1="17.7801" y1="26.9132" x2="29.081" y2="12.6089" gradientUnits="userSpaceOnUse">
<stop stop-color="#262AFF"/>
<stop offset="1" stop-color="#262AFF" stop-opacity="0"/>
</linearGradient>
<linearGradient id="paint2_linear_3407_5173" x1="18.1775" y1="14.2029" x2="28.7953" y2="6.79583" gradientUnits="userSpaceOnUse">
<stop stop-color="#262AFF" stop-opacity="0.2"/>
<stop offset="1" stop-color="#262AFF" stop-opacity="0"/>
</linearGradient>
</defs>
</svg>
